<svg width="80" height="30" viewBox="0 0 80 30" fill="none" xmlns="http://www.w3.org/2000/svg">
<g clip-path="url(#clip0)">
<path fill-rule="evenodd" clip-rule="evenodd" d="M11.7672 13.4806C11.7672 13.4806 14.7737 17.4569 1.42242 18.75C2.4569 19.0733 6.98277 18.9763 9.9569 17.6508C12.6401 16.4547 13.2543 14.709 11.7672 13.4806Z" fill="#8E8E8E"/>
<path fill-rule="evenodd" clip-rule="evenodd" d="M8.68686 4.04095C8.75151 3.97629 8.78384 3.94397 8.8485 3.87931C8.71919 4.00862 8.68686 4.04095 8.68686 4.04095ZM7.65238 12.0259C7.16746 11.9935 6.81186 11.9612 6.81186 11.9612C7.00582 11.9935 7.29677 11.9935 7.65238 12.0259ZM26.0144 0C26.0144 0 21.6179 0.9375 13.9886 4.94612C12.8571 2.55388 11.2084 1.74569 8.8485 3.91164C9.39807 3.45905 11.2084 2.32759 12.9218 5.52802C10.6912 6.75647 8.16962 8.21121 5.4541 10.0216C-5.50495 17.7155 2.47996 18.7177 8.6222 15.3233C13.8916 12.3815 9.81832 12.1552 7.6847 12.0582C9.62436 12.2198 13.6007 12.931 6.22996 15.6789C-3.01573 19.0733 2.25367 12.4138 12.4692 6.69181C12.7601 6.53017 13.0188 6.36853 13.2774 6.23922C14.7644 9.53664 16.1222 16.3578 16.4778 30C16.4778 30 17.092 12.8017 14.3119 5.68966C22.9433 0.9375 26.0144 0 26.0144 0Z" fill="#8E8E8E"/>
<path fill-rule="evenodd" clip-rule="evenodd" d="M16.5194 6.85346C24.1164 2.74786 26.8319 1.93967 26.8319 1.93967C26.8319 1.93967 22.9526 2.74786 16.1638 6.17458" fill="#8E8E8E"/>
<path d="M23.1142 10.8621H21.3362C21.1099 10.8621 20.9806 10.9914 20.9806 11.2177V11.9289H19.1056V10.1185C19.1056 9.34267 19.3642 9.08405 20.1401 9.08405H28.1573C28.9332 9.08405 29.1918 9.34267 29.1918 10.1185V11.9289H27.3168V11.2177C27.3168 10.9914 27.1875 10.8621 26.9612 10.8621H25.2155V20.5603H23.0819V10.8621H23.1142Z" fill="#8E8E8E"/>
<path d="M33.1034 15.3556H33.3621V15.2909C33.3621 14.0948 32.8771 13.6746 31.8427 13.6746C31.4547 13.6746 30.7435 13.7715 30.7435 14.2241V14.6444H28.8362V13.7715C28.8362 12.2198 31.0021 12.0905 31.875 12.0905C34.6228 12.0905 35.431 13.5453 35.431 15.3879V18.459C35.431 18.6853 35.5603 18.8147 35.7866 18.8147H36.4332V20.5603H34.5905C33.847 20.5603 33.556 20.1401 33.556 19.6552C33.556 19.4289 33.556 19.2996 33.556 19.2996H33.5237C33.5237 19.2996 32.8771 20.7543 31.0345 20.7543C29.5474 20.7543 28.222 19.8491 28.222 18.1681C28.1896 15.5819 31.7457 15.3556 33.1034 15.3556ZM31.5194 19.1379C32.6185 19.1379 33.3944 17.9741 33.3944 16.972V16.778H33.0388C31.972 16.778 30.2586 16.9397 30.2586 18.0711C30.2586 18.6207 30.6789 19.1379 31.5194 19.1379Z" fill="#8E8E8E"/>
<path d="M40.0862 12.0905C41.9935 12.0905 42.6401 13.2543 42.6401 13.2543H42.6724C42.6724 13.2543 42.6724 13.1573 42.6724 13.028C42.6724 12.6401 42.931 12.2522 43.5776 12.2522H45.4849V13.9978H44.8384C44.6121 13.9978 44.4828 14.1271 44.4828 14.3211V20.0431C44.4828 22.8556 42.2845 23.9547 40.1185 23.9547C39.0841 23.9547 37.9849 23.6638 37.1767 23.2435L37.8233 21.6271C37.8233 21.6271 38.8578 22.1767 40.1185 22.1767C41.347 22.1767 42.4461 21.6595 42.4461 20.1401V19.7521C42.4461 19.5582 42.4461 19.3319 42.4461 19.3319H42.4138C41.9289 20.0108 41.2177 20.3987 40.1185 20.3987C37.7586 20.3987 36.4009 18.4914 36.4009 16.2284C36.4332 13.9332 37.694 12.0905 40.0862 12.0905ZM42.4784 16.2284C42.4784 14.3534 41.541 13.8362 40.4095 13.8362C39.1487 13.8362 38.4698 14.7414 38.4698 16.1315C38.4698 17.5862 39.181 18.653 40.5065 18.653C41.541 18.653 42.4784 18.0711 42.4784 16.2284Z" fill="#8E8E8E"/>
<path d="M46.0668 14.4181C45.9375 14.1271 45.7759 14.0625 45.4849 14.0625H45.3233L45.0323 12.3168H45.4849C46.2608 12.3168 46.4871 12.4784 46.778 13.222L48.75 18.2974C48.8793 18.6853 49.0086 19.2349 49.0086 19.2349H49.0409C49.0409 19.2349 49.1703 18.6853 49.2996 18.2974L51.2716 13.222C51.5302 12.5108 51.7888 12.3168 52.5647 12.3168H52.9849V13.2866H52.8233C52.5323 13.2866 52.3384 13.3513 52.2414 13.6422L49.5905 20.4634H48.3944L46.0668 14.4181Z" fill="#8E8E8E"/>
<path d="M54.6983 13.6099C54.6983 13.3836 54.569 13.2543 54.3427 13.2543H53.6638V12.2845H54.7953C55.5065 12.2845 55.7651 12.5754 55.7651 13.2543V19.1056C55.7651 19.3642 55.8944 19.4612 56.1207 19.4612H56.7996V20.3987H55.6358C54.9246 20.3987 54.6659 20.1078 54.6659 19.4289V13.6099H54.6983ZM54.6659 9.05173H55.7328V10.4418H54.6659V9.05173Z" fill="#8E8E8E"/>
<path d="M61.9073 12.0905C64.1703 12.0905 65.334 13.8362 65.334 15.8405C65.334 16.0345 65.3017 16.3901 65.3017 16.3901H59.0625C59.0948 18.459 60.5172 19.6228 62.1983 19.6228C63.6853 19.6228 64.6552 18.6207 64.6552 18.6207L65.2047 19.4612C65.2047 19.4612 64.0086 20.625 62.1659 20.625C59.7414 20.625 57.8987 18.8793 57.8987 16.3578C57.8987 13.7069 59.7414 12.0905 61.9073 12.0905ZM64.2026 15.5172C64.1379 13.8362 63.1034 12.9957 61.9073 12.9957C60.5496 12.9957 59.3858 13.8685 59.0948 15.5172H64.2026Z" fill="#8E8E8E"/>
<path d="M67.0474 13.6099C66.9504 13.319 66.7565 13.2543 66.4655 13.2543H66.2716V12.2845H66.8535C67.6293 12.2845 67.8879 12.4461 68.1466 13.1897L69.8276 18.3621C69.9569 18.75 70.0862 19.2349 70.0862 19.2349H70.1185C70.1185 19.2349 70.2478 18.75 70.3772 18.3621L72.3815 12.3168H73.4806L75.4849 18.3621C75.6142 18.75 75.7435 19.2349 75.7435 19.2349H75.7759C75.7759 19.2349 75.8728 18.75 76.0022 18.3621L77.6832 13.1897C77.9418 12.4461 78.2004 12.2845 78.9763 12.2845H79.5582V13.2543H79.2026C78.9116 13.2543 78.7177 13.319 78.6207 13.6099L76.2931 20.431H75.0647L73.0603 14.6444C72.931 14.2565 72.8017 13.7716 72.8017 13.7716H72.7694C72.7694 13.7716 72.6401 14.2565 72.5108 14.6444L70.5388 20.431H69.3103L67.0474 13.6099Z" fill="#8E8E8E"/>
</g>
<defs>
<clipPath id="clip0">
<rect width="79.4289" height="30" fill="white"/>
</clipPath>
</defs>
</svg>
